<svg width="144" height="77" viewBox="0 0 144 77" fill="none" xmlns="http://www.w3.org/2000/svg">
<g clip-path="url(#clip0_1905_4183)">
<path d="M65.5203 25.3208C62.7749 25.3415 59.7532 26.5971 59.7532 29.6615C59.7532 31.6264 60.724 32.7163 62.1439 33.3505C62.7592 33.2349 63.3708 33.1188 63.9787 33.0023L64.6796 32.8684C65.8498 32.6457 67.1765 32.3953 68.5537 32.1564C67.7201 31.8937 66.7895 31.7358 65.8394 31.6186C64.0519 31.4063 62.52 31.0439 62.52 29.7463C62.52 28.6396 63.5199 27.7672 65.6051 27.7672C67.2231 27.7672 68.6269 28.5755 69.1375 29.4272L71.3722 28.2778C70.2442 25.9803 67.8399 25.3208 65.5203 25.3208ZM71.0939 33.7912C70.8221 33.8301 70.5503 33.8702 70.2811 33.9123C69.3057 34.0631 68.3046 34.2359 67.1403 34.4507C68.2987 34.7743 69.0553 35.3568 69.0553 36.3658C69.0553 37.9837 67.3952 38.5999 65.6291 38.5999C63.8169 38.5999 62.0967 37.8763 61.4372 36.2376L59.0963 37.4505C60.203 40.1745 62.5433 41.111 65.5863 41.111C68.9064 41.111 71.8427 39.6871 71.8427 36.3658C71.8401 35.2688 71.5644 34.4333 71.0939 33.7912Z" fill="white"/>
<path d="M84.03 32.8599C83.7297 32.8528 83.4314 32.8476 83.1382 32.845C82.6923 33.3951 81.9914 33.7692 81.0335 33.7692H76.8197V33.111C76.1524 33.1699 75.4606 33.2405 74.7079 33.3285L74.0109 33.41V40.7278H76.8197V36.3444H81.0335C83.7996 36.3444 85.5147 34.8313 86.1813 32.9512C85.4519 32.9072 84.7303 32.8767 84.03 32.8599ZM81.0335 25.8101C78.6927 25.8101 76.3518 25.8314 74.0109 25.8314V31.3358L74.5105 31.2769C75.2936 31.1863 76.0702 31.1073 76.8197 31.0419V28.4914H81.0335C82.6515 28.4914 83.5427 29.5748 83.698 30.7565H84.1659C84.9801 30.7637 85.7412 30.7805 86.4958 30.809C86.3742 28.2713 84.551 25.8101 81.0335 25.8101Z" fill="white"/>
<path d="M96.6101 25.8315H93.5456L91.151 31.1741C91.7211 31.257 92.2864 31.3698 92.8447 31.5119L92.936 31.5352C93.2409 31.6086 93.5406 31.7024 93.833 31.8161L95.0795 28.9594L97.8456 35.3019H92.3127L92.7586 34.2806C92.523 34.0906 92.2615 33.935 91.982 33.8185C91.4066 33.5774 90.8029 33.4103 90.1854 33.3215L86.864 40.7279H89.9058L91.1827 37.9191H98.971L100.227 40.7279H103.291L96.6101 25.8315Z" fill="white"/>
<path d="M114.89 36.9186C113.911 37.8978 112.442 38.4298 111.145 38.4298C107.463 38.4298 106.037 35.8546 106.016 33.3862C105.994 30.8965 107.548 28.2145 111.145 28.2145C112.439 28.2145 113.762 28.6617 114.741 29.6189L116.614 27.8107C115.081 26.2995 113.166 25.5332 111.145 25.5332C105.761 25.5332 103.228 29.4914 103.249 33.3862C103.27 37.2597 105.611 41.0684 111.145 41.0684C113.293 41.0684 115.273 40.3662 116.805 38.8556L114.89 36.9186Z" fill="white"/>
<path d="M129.488 28.5549V25.8315H118.339V40.7279H129.491V37.9618H121.122V34.5965H129.187V31.9792H121.122V28.5523L129.488 28.5549Z" fill="white"/>
<path d="M137.999 31.6193C136.212 31.407 134.679 31.0446 134.679 29.7469C134.679 28.6402 135.68 27.7678 137.765 27.7678C139.383 27.7678 140.787 28.5762 141.297 29.4279L143.532 28.2785C142.404 25.9803 139.999 25.3208 137.68 25.3208C134.935 25.3415 131.913 26.5971 131.913 29.6615C131.913 33.003 134.722 33.8119 137.765 34.1737C139.744 34.3867 141.213 34.9607 141.213 36.3658C141.213 37.9837 139.552 38.5999 137.786 38.5999C135.977 38.5999 134.254 37.8763 133.594 36.2376L131.254 37.4505C132.36 40.1745 134.7 41.111 137.744 41.111C141.064 41.111 144 39.6871 144 36.3658C144 32.812 141.106 32.0031 137.999 31.6193Z" fill="white"/>
<path d="M22.9235 31.4562C22.9235 31.4148 22.8588 31.3915 22.7986 31.3313C20.2953 29.5994 15.8937 29.3496 13.1399 27.3051C12.0552 26.5123 11.5336 25.6567 11.5336 24.739C11.5336 23.9669 11.909 23.1741 12.639 22.3398C13.2901 21.5917 14.0173 20.9134 14.809 20.3161C17.6043 18.2095 20.6079 16.5197 24.0089 15.5599C24.968 15.2887 26.3032 14.9547 27.4713 14.9547C27.8437 14.9517 28.2151 14.9938 28.5774 15.0803C29.6621 15.3515 30.0582 16.0394 30.0582 16.8115C30.0582 17.4374 29.8083 18.1059 29.4757 18.7098C28.6829 20.1284 27.5988 21.3386 26.43 22.4635C26.221 22.6932 25.9919 22.8602 25.8877 23.1754C25.8042 23.4051 25.4495 23.6556 25.1363 23.6556C25.0571 23.6578 24.9785 23.642 24.9064 23.6095C24.8342 23.577 24.7703 23.5286 24.7195 23.4679C24.6768 23.4238 24.6437 23.3714 24.6221 23.3139C24.6005 23.2565 24.5909 23.1952 24.5939 23.1339C24.5939 22.8421 24.8237 22.5916 25.0528 22.4039C26.263 21.3606 28.8065 18.711 28.9955 16.9377V16.8335C28.9955 16.1035 28.2836 15.8951 27.4105 15.8951C26.4086 15.8951 25.199 16.187 24.7609 16.3119C20.6512 17.418 17.0211 19.3789 13.8713 22.2369C13.4102 22.629 13.0096 23.087 12.6824 23.596C12.4319 24.0135 12.3277 24.3889 12.3277 24.7435C12.3277 25.8075 13.3082 26.6204 14.3508 27.2028C16.9169 28.6843 20.758 29.2091 23.572 30.9792C23.6436 31.0342 23.7316 31.0636 23.8218 31.0627C23.8999 31.0587 23.9772 31.0446 24.0516 31.0206C25.2198 30.6038 26.221 30.2699 27.3684 30.2699C27.7248 30.268 28.0807 30.296 28.4324 30.3534C28.9955 30.4576 29.455 30.6038 29.6427 31.3339H29.6213C29.3715 31.3339 29.4964 30.875 28.7871 30.666C28.4071 30.5654 28.0152 30.5164 27.6221 30.5203C26.4747 30.5203 25.2651 30.875 24.2846 31.2711C24.2198 31.2918 24.2011 31.3358 24.2011 31.3546C24.2011 31.3733 24.2011 31.3753 24.2218 31.396C24.9518 32.0218 26.2035 33.0023 26.2035 34.7963C26.2035 35.8603 25.7653 37.1955 24.493 38.9274C22.5514 41.5349 18.6307 44.831 14.7922 45.8743C14.0311 46.0856 13.2457 46.1977 12.4559 46.2076C11.8998 46.2117 11.3456 46.1416 10.8081 45.9992C9.68135 45.6866 9.20178 44.7048 9.20178 43.7256C9.20502 43.2873 9.29727 42.8542 9.47295 42.4526C11.1835 38.4892 18.9439 33.5032 22.8446 31.5215C22.9028 31.4982 22.9235 31.4769 22.9235 31.4562ZM10.0108 42.1788C9.74166 42.6718 9.59827 43.2235 9.59333 43.7852C9.59333 44.6822 10.0108 45.4957 11.0534 45.7462C11.4915 45.8717 12.0132 45.9131 12.5348 45.9131C13.2814 45.9107 14.0246 45.8126 14.7463 45.6212C18.3757 44.5152 21.9016 41.762 24.1752 38.7371C25.177 37.378 25.8443 36.1082 25.8443 34.8986C25.8443 33.7925 25.2812 32.7286 23.8626 31.7274C23.7574 31.6553 23.6351 31.6122 23.5079 31.6024C23.4338 31.6044 23.3617 31.6268 23.2995 31.6672C19.6694 33.6256 11.8462 38.8206 10.0108 42.1788Z" fill="white"/>
<path d="M30.9973 37.2767C29.9126 37.2767 29.4744 36.4632 29.4744 35.629C29.4719 35.2997 29.5357 34.9733 29.6621 34.6692C30.2672 33.1884 31.3306 32.1244 32.8334 31.498C33.0083 31.4109 33.2018 31.3678 33.3971 31.3724C33.8352 31.3724 34.0643 31.6856 34.0643 32.0403C34.0657 32.2495 33.9999 32.4537 33.8766 32.6228C33.6682 32.9147 33.4592 33.2279 33.1647 33.4156C32.5822 33.8123 31.9351 34.1663 31.3079 34.521C31.1237 34.6272 30.9154 34.6847 30.7028 34.688C30.5684 34.6851 30.435 34.6634 30.3067 34.6232C30.0835 34.9416 29.96 35.3192 29.9521 35.7079C29.9521 36.3752 30.4316 36.834 31.2872 36.834C31.5271 36.8363 31.7663 36.8083 31.9991 36.7506C34.0436 36.2503 37.3812 34.4356 38.9888 33.2046C39.0043 33.1859 39.0234 33.1705 39.0449 33.1594C39.0665 33.1483 39.0901 33.1416 39.1143 33.1399C39.1351 33.1399 39.1558 33.1606 39.1558 33.2046C39.1558 33.2253 39.1351 33.2693 39.0723 33.3295C37.5701 34.644 33.2728 37.168 31.1241 37.2722L30.9973 37.2767ZM30.6633 34.0408C31.5603 33.7696 32.8955 32.7056 32.9997 32.184C31.9985 32.4998 31.3306 33.2091 30.6633 34.0434V34.0408Z" fill="white"/>
<path d="M38.5072 35.6082C38.2568 35.6082 37.9856 35.4205 37.9856 35.128C37.9895 35.0636 38.0035 35.0003 38.027 34.9403C38.1105 34.6898 38.194 34.4607 38.2982 34.2102C38.641 33.5205 39.116 32.9048 39.6961 32.3981C40.0214 32.1184 40.4353 31.9631 40.8643 31.96C41.3445 31.96 41.8034 32.1684 42.0118 32.523C42.0325 32.5437 42.0325 32.5437 42.0532 32.5437C42.1367 32.5437 42.2415 32.4188 42.3457 32.3981C42.3664 32.3981 42.4104 32.3767 42.4292 32.3767C42.5962 32.3767 42.679 32.5644 42.679 32.7528C42.6837 32.809 42.6767 32.8657 42.6583 32.9191C42.5127 33.3786 41.6157 34.9014 41.6157 35.7564C41.6157 36.0903 41.7613 36.3201 42.158 36.3201H42.1787C45.016 36.3201 48.6668 33.2951 48.9794 33.1696H49.0001C49.0215 33.1696 49.0215 33.1696 49.0215 33.1909C49.0198 33.2069 49.0122 33.2217 49.0001 33.2323C47.6863 34.5675 44.1604 36.5913 42.3037 36.6747H42.1787C41.3652 36.6747 41.094 36.1738 41.094 35.5687C41.094 35.0056 41.3024 34.3591 41.5322 33.8996C40.8015 34.3798 39.3835 35.3603 38.6742 35.5894C38.6202 35.606 38.5636 35.6124 38.5072 35.6082ZM39.1544 34.5442C39.1544 34.6089 39.1751 34.6277 39.1958 34.6277C39.2328 34.6193 39.2682 34.6051 39.3007 34.5856C40.1556 34.064 40.6358 33.7721 41.3659 33.0628C41.2403 32.8544 41.0733 32.7709 40.907 32.7709C40.8037 32.7718 40.7027 32.8006 40.6145 32.8544C40.1556 33.0835 39.4884 33.8142 39.2554 34.231C39.1995 34.3269 39.1649 34.4337 39.1538 34.5442H39.1544Z" fill="white"/>
<path d="M94.6872 33.6677C94.6872 33.9389 94.4782 34.2101 94.1863 34.2101C93.998 34.2101 93.7896 34.1059 93.5605 33.856C93.4259 33.7096 93.276 33.5781 93.1132 33.4639C92.8677 33.2921 92.6053 33.1457 92.3301 33.027C91.7593 32.7862 91.1625 32.6125 90.5517 32.5092C90.4287 32.4872 90.309 32.4678 90.1931 32.4523C90.1025 32.4393 90.0145 32.429 89.9304 32.4193C88.724 32.2788 87.5681 32.1766 86.4608 32.106H86.4077C85.5957 32.0556 84.8102 32.021 84.0513 32.0025L83.5944 31.9928C83.2526 31.987 82.9181 31.9844 82.5873 31.9844C80.5526 31.9844 78.6912 32.0853 76.9464 32.2387L76.817 32.2497C76.0604 32.3144 75.3284 32.394 74.6068 32.4762L74.0082 32.5461C73.4438 32.6108 72.8892 32.6853 72.3417 32.7565C71.6578 32.8428 70.9875 32.9362 70.3308 33.0367L70.1431 33.0652C68.621 33.3001 67.1589 33.5687 65.706 33.8496C65.3608 33.9164 65.0157 33.984 64.6705 34.0521C60.0269 34.9692 55.3607 35.9724 49.0369 36.4073C48.3483 36.428 48.0979 36.9082 48.015 37.0545C47.4099 38.3488 46.9711 39.3908 46.3874 40.7473C46.2832 40.9972 46.2624 41.2651 46.1582 41.4981C46.1162 41.6023 45.9492 41.6443 45.8664 41.7272C45.8016 41.6236 45.7201 41.5194 45.7201 41.4146V41.3725C45.7294 41.1655 45.7715 40.9612 45.845 40.7674C46.6171 38.6608 47.5348 36.2617 48.4111 34.1971C50.5384 29.1063 54.2106 22.4098 55.9185 20.3861C56.169 20.157 56.4195 20.0521 56.6304 20.0521C56.6969 20.0496 56.7632 20.0608 56.8251 20.0851C56.887 20.1093 56.9433 20.1461 56.9903 20.1932C57.0373 20.2402 57.0742 20.2964 57.0984 20.3584C57.1227 20.4203 57.1339 20.4866 57.1314 20.553C57.1302 20.6607 57.1083 20.767 57.0667 20.8663C56.8589 21.3458 56.7748 21.4293 56.358 21.7419C56.191 21.8675 55.7529 22.0552 55.6279 22.2221C54.3336 24.0343 50.1825 31.8601 49.3275 34.1758C50.4122 33.0283 54.1672 29.063 56.3172 29.063C56.4015 29.0594 56.4859 29.0666 56.5683 29.0843C56.708 29.0999 56.8374 29.1655 56.9326 29.2689C57.0277 29.3724 57.0822 29.5068 57.0861 29.6474C57.0894 29.7313 57.0645 29.814 57.0153 29.8821C56.9662 29.9503 56.8956 30 56.8149 30.0234C56.761 30.0404 56.7044 30.0475 56.6479 30.0441C56.356 30.0441 56.1891 29.7101 55.936 29.7101C55.9153 29.7101 55.8713 29.7308 55.8525 29.7308C54.3297 30.169 50.1779 33.8198 49.114 35.0715C48.8849 35.3634 48.76 35.5892 48.76 35.7594C48.76 35.885 48.8641 35.9685 49.0311 35.9685C54.5478 35.6747 59.2179 34.7964 63.8867 33.9072L64.8304 33.7266C66.4483 33.4179 68.0767 33.1137 69.7451 32.8354L69.9749 32.7979C71.2841 32.5817 72.6199 32.383 73.9998 32.2154C74.1984 32.1908 74.3984 32.1675 74.5984 32.1442C75.322 32.0601 76.0587 31.9848 76.8086 31.9184L76.938 31.9074C78.9592 31.7339 81.0884 31.631 83.3717 31.631H83.6727H84.1509C84.9023 31.6381 85.6712 31.6537 86.4601 31.6841H86.5248C87.1983 31.7091 87.8868 31.7453 88.59 31.7928C89.2372 31.8387 89.8288 31.8841 90.4119 31.952C90.5335 31.9658 90.6548 31.9811 90.7756 31.998C91.3989 32.0799 92.017 32.1981 92.6266 32.352L92.7204 32.3766C92.9783 32.44 93.2321 32.5193 93.4802 32.6141C93.9488 32.7947 94.4368 33.0535 94.6186 33.3784C94.6631 33.4684 94.6865 33.5673 94.6872 33.6677Z" fill="white"/>
<path d="M65.2498 53.1177C68.7317 55.659 72.1948 58.188 75.6391 60.7047C78.248 62.6113 80.8853 64.4817 83.4436 66.4524C85.9282 68.3661 86.4492 71.5102 84.7937 73.8776C83.1841 76.1797 79.7605 76.9136 77.329 75.1617C71.1036 70.6766 64.9268 66.123 58.6355 61.4884L65.2498 53.1177Z" fill="white"/>
<path d="M63.3723 51.7474L56.7645 60.1104L54.2023 58.2252L53.4114 57.6427L53.1473 57.4485C55.9476 55.207 58.3446 52.5036 60.2347 49.4551L60.291 49.4959L60.9059 49.9489C61.7304 50.549 62.5525 51.1486 63.3723 51.7474Z" fill="white"/>
<path d="M60.2347 49.4566C60.9962 48.2282 61.6716 46.9485 62.2559 45.6266C59.3335 52.5073 54.1229 58.1665 47.5064 61.646C40.8899 65.1254 33.2742 66.2112 25.949 64.7195C18.6237 63.2278 12.0392 59.2503 7.31027 53.4604C2.58139 47.6706 -0.00114148 40.4243 3.78486e-07 32.9487C3.78486e-07 15.0461 14.5126 0.53418 32.4146 0.53418C46.3725 0.53418 58.2698 9.35733 62.8325 21.7303C58.3139 9.98511 46.9226 1.64864 33.5847 1.64864C16.2827 1.64864 2.25611 15.6746 2.25611 32.9772C2.24684 38.9369 3.94569 44.7744 7.15146 49.7984C10.0005 54.273 13.9388 57.9512 18.5974 60.4883C23.256 63.0254 28.4824 64.3384 33.7869 64.3042C39.0915 64.2701 44.3005 62.8899 48.9261 60.293C53.5516 57.6962 57.4422 53.9676 60.2334 49.4566H60.2347Z" fill="white"/>
<path d="M67.3764 44.3315C67.1242 44.2276 66.8544 44.1728 66.5817 44.1704C66.273 44.1623 65.9675 44.2343 65.695 44.3794C65.4461 44.5184 65.3216 44.7227 65.3216 44.9923C65.3186 45.1076 65.3522 45.2208 65.4174 45.3159C65.4932 45.4165 65.595 45.4946 65.7118 45.5418C65.8411 45.6001 65.9751 45.647 66.1125 45.6822C66.2471 45.7163 66.4173 45.7493 66.6231 45.7812C66.86 45.8181 67.0522 45.8524 67.1984 45.8841C67.3695 45.9237 67.5375 45.9752 67.7013 46.0382C67.8619 46.0926 68.0115 46.175 68.1433 46.2815C68.2582 46.3861 68.3503 46.5132 68.4139 46.6549C68.4979 46.8498 68.536 47.0614 68.5254 47.2734C68.5147 47.4853 68.4555 47.692 68.3524 47.8775C68.2399 48.0651 68.0789 48.2189 67.8864 48.3228C67.6913 48.4281 67.4827 48.5063 67.2664 48.5551C67.0396 48.6064 66.8077 48.6318 66.5752 48.6308C66.1498 48.6384 65.7285 48.5458 65.3455 48.3603C64.9878 48.1828 64.7042 47.8849 64.5443 47.519L65.0375 47.2316C65.1839 47.501 65.4099 47.7187 65.6847 47.8548C65.9606 47.9988 66.2672 48.0741 66.5784 48.0742C66.7334 48.0745 66.8881 48.0606 67.0405 48.0328C67.1896 48.0054 67.3347 47.9593 67.4722 47.8956C67.6072 47.8355 67.7233 47.7397 67.8081 47.6186C67.8955 47.4907 67.9408 47.3386 67.9375 47.1837C67.9403 47.0523 67.9031 46.9232 67.8307 46.8135C67.7507 46.7007 67.6403 46.613 67.5123 46.5605C67.3745 46.4975 67.2314 46.447 67.0845 46.4097C66.9409 46.3728 66.7609 46.3391 66.5538 46.3068C66.3467 46.2744 66.1506 46.242 66.0024 46.2077C65.8383 46.1684 65.677 46.118 65.5196 46.0569C65.3681 46.0034 65.2268 45.9247 65.1015 45.824C64.9905 45.727 64.9008 45.6079 64.8381 45.4745C64.7647 45.3195 64.7284 45.1495 64.732 44.9781C64.7227 44.758 64.7785 44.5401 64.8925 44.3516C65.0012 44.1744 65.1548 44.029 65.3378 43.9303C65.5231 43.8298 65.7212 43.7549 65.9267 43.7076C66.4956 43.5823 67.0884 43.6214 67.6359 43.8203C67.938 43.9441 68.1867 44.1725 68.3821 44.5056L67.9291 44.7865C67.7984 44.5795 67.6046 44.4201 67.3764 44.3315Z" fill="white"/>
<path d="M70.7185 43.7388H74.0884V44.2876H71.3055V45.7878H73.97V46.3424H71.3075V47.9656H74.2004V48.5345H70.7185V43.7388Z" fill="white"/>
<path d="M76.4242 43.7388H79.7941V44.2876H77.0112V45.7878H79.6757V46.3424H77.0112V47.9656H79.9015V48.5345H76.4222L76.4242 43.7388Z" fill="white"/>
<path d="M82.1298 43.7388H82.7187V45.8557L84.8421 43.7388H85.5909V43.7731L83.2895 46.0473L85.7967 48.4924V48.5338H85.057L82.7213 46.2803V48.5338H82.1324L82.1298 43.7388Z" fill="white"/>
<path d="M87.6233 47.8999C87.6799 47.8688 87.7435 47.8525 87.808 47.8525C87.8726 47.8525 87.9362 47.8688 87.9928 47.8999C88.0542 47.9303 88.105 47.9786 88.1383 48.0385C88.1717 48.0983 88.1862 48.1669 88.1799 48.2351C88.1849 48.3014 88.1699 48.3676 88.1369 48.4253C88.1039 48.4829 88.0544 48.5294 87.9948 48.5587C87.9377 48.5888 87.874 48.6042 87.8095 48.6035C87.745 48.6029 87.6816 48.5861 87.6252 48.5548C87.5652 48.5246 87.5156 48.4772 87.4826 48.4186C87.4497 48.3601 87.4349 48.293 87.4401 48.226C87.4343 48.1595 87.4486 48.0928 87.4813 48.0346C87.514 47.9764 87.5634 47.9294 87.6233 47.8999Z" fill="white"/>
<path d="M96.6917 43.7389V44.3078H93.9586V45.9789H96.5752V46.5335H93.9586V48.5398H93.3625V43.7383L96.6917 43.7389Z" fill="white"/>
<path d="M98.8972 43.7388H99.4926V48.5338H98.8972V43.7388Z" fill="white"/>
<path d="M102.431 43.7388L105.37 47.4103V43.7388H105.959V48.5338H105.548L102.602 44.8759V48.5338H102.013V43.7388H102.431Z" fill="white"/>
<path d="M108.479 43.7323H110.226C110.59 43.7266 110.951 43.7942 111.288 43.9309C111.58 44.0469 111.84 44.2298 112.048 44.4649C112.239 44.6863 112.387 44.9404 112.487 45.215C112.588 45.4928 112.638 45.7861 112.637 46.0816C112.639 46.3877 112.59 46.692 112.494 46.9825C112.399 47.266 112.254 47.5303 112.066 47.763C111.861 48.009 111.601 48.2018 111.305 48.3247C110.964 48.4687 110.597 48.5399 110.226 48.5338H108.479V43.7323ZM111.578 47.3863C111.886 47.0195 112.051 46.5533 112.041 46.0744C112.05 45.6135 111.88 45.167 111.568 44.828C111.254 44.4828 110.806 44.3102 110.226 44.3102H109.075V47.9403H110.226C110.819 47.9386 111.27 47.7539 111.578 47.3863Z" fill="white"/>
<path d="M114.692 47.8999C114.749 47.8688 114.812 47.8525 114.877 47.8525C114.941 47.8525 115.005 47.8688 115.061 47.8999C115.121 47.9302 115.171 47.9776 115.204 48.0361C115.237 48.0947 115.252 48.1617 115.247 48.2286C115.252 48.2949 115.237 48.3611 115.204 48.4188C115.171 48.4765 115.121 48.5229 115.061 48.5522C115.004 48.5823 114.941 48.5977 114.876 48.5971C114.812 48.5964 114.748 48.5796 114.692 48.5483C114.632 48.5181 114.582 48.4707 114.549 48.4121C114.516 48.3536 114.502 48.2866 114.507 48.2196C114.502 48.1539 114.518 48.0885 114.551 48.0315C114.584 47.9746 114.633 47.9287 114.692 47.8999Z" fill="white"/>
<path d="M122.528 43.7389C122.988 43.7389 123.372 43.8543 123.678 44.0852C123.985 44.316 124.138 44.6482 124.137 45.0818C124.14 45.2951 124.075 45.5039 123.952 45.6779C123.819 45.8576 123.636 45.993 123.425 46.0662C123.684 46.1337 123.91 46.293 124.061 46.5147C124.206 46.7177 124.285 46.9604 124.288 47.2098C124.294 47.4308 124.244 47.6497 124.144 47.8466C124.053 48.0197 123.914 48.1625 123.743 48.2576C123.569 48.3544 123.383 48.4249 123.188 48.4666C122.971 48.5118 122.749 48.5335 122.528 48.5314H120.431V43.7363L122.528 43.7389ZM121.027 45.8009H122.555C122.857 45.8009 123.098 45.7426 123.278 45.6261C123.458 45.5096 123.548 45.3304 123.548 45.0883C123.554 44.973 123.532 44.858 123.483 44.7535C123.434 44.649 123.36 44.5581 123.267 44.489C123.08 44.3501 122.833 44.2806 122.528 44.2806H121.027V45.8009ZM121.027 47.9722H122.528C122.661 47.9728 122.794 47.9613 122.925 47.9379C123.052 47.9139 123.176 47.8759 123.294 47.8246C123.413 47.7759 123.515 47.6924 123.586 47.5852C123.659 47.4672 123.696 47.33 123.692 47.191C123.695 47.0639 123.664 46.9383 123.603 46.827C123.541 46.7157 123.451 46.6227 123.342 46.5574C123.106 46.4115 122.832 46.3367 122.555 46.3419H121.027V47.9722Z" fill="white"/>
<path d="M130.456 44.3963C130.881 44.88 131.107 45.5066 131.089 46.1502C131.09 46.4627 131.038 46.7731 130.934 47.0679C130.834 47.3558 130.684 47.6236 130.49 47.8588C130.283 48.1033 130.021 48.2957 129.726 48.4206C129.04 48.699 128.272 48.699 127.585 48.4206C127.289 48.2965 127.026 48.104 126.818 47.8588C126.625 47.6245 126.474 47.3579 126.373 47.0712C126.269 46.7753 126.217 46.4638 126.219 46.1502C126.219 45.4374 126.442 44.8437 126.887 44.3691C127.332 43.8945 127.925 43.6572 128.664 43.6572C129.432 43.662 130.029 43.9083 130.456 44.3963ZM130.308 45.215C130.174 44.9222 129.959 44.6739 129.688 44.4992C129.383 44.3018 129.027 44.1993 128.664 44.2047C128.08 44.2047 127.626 44.3909 127.301 44.7633C126.977 45.1356 126.815 45.5979 126.815 46.1502C126.802 46.6468 126.973 47.1308 127.295 47.5093C127.614 47.8838 128.07 48.0711 128.664 48.0711C129.258 48.0711 129.711 47.8817 130.023 47.5028C130.338 47.1246 130.506 46.6454 130.496 46.1534C130.503 45.8306 130.439 45.5101 130.308 45.215Z" fill="white"/>
<path d="M137.243 44.396C137.668 44.8797 137.895 45.5062 137.877 46.1499C137.878 46.4624 137.826 46.7727 137.722 47.0676C137.622 47.3555 137.472 47.6232 137.278 47.8585C137.071 48.103 136.809 48.2954 136.514 48.4202C135.827 48.6987 135.06 48.6987 134.373 48.4202C134.077 48.2961 133.814 48.1036 133.606 47.8585C133.412 47.6241 133.261 47.3572 133.16 47.0702C133.056 46.7743 133.004 46.4628 133.006 46.1492C133.006 45.4365 133.228 44.8428 133.673 44.3682C134.119 43.8936 134.711 43.6562 135.451 43.6562C136.219 43.6614 136.817 43.908 137.243 44.396ZM137.096 45.2147C136.962 44.9219 136.746 44.6735 136.476 44.4989C136.171 44.3015 135.815 44.199 135.452 44.2044C134.867 44.2044 134.413 44.3906 134.089 44.7629C133.765 45.1353 133.603 45.5976 133.603 46.1499C133.59 46.6465 133.761 47.1305 134.082 47.509C134.401 47.8835 134.858 48.0707 135.452 48.0707C136.046 48.0707 136.499 47.8813 136.811 47.5025C137.126 47.1241 137.293 46.6451 137.283 46.1531C137.291 45.8303 137.227 45.5098 137.096 45.2147Z" fill="white"/>
<path d="M140.096 43.7388H140.685V45.8557L142.809 43.7388H143.555V43.7731L141.253 46.0473L143.761 48.4943V48.5357H143.021L140.685 46.2822V48.5357H140.096V43.7388Z" fill="white"/>
</g>
<defs>
<clipPath id="clip0_1905_4183">
<rect width="144" height="75.5984" fill="white" transform="translate(0 0.53418)"/>
</clipPath>
</defs>
</svg>
